<svg xmlns="http://www.w3.org/2000/svg" viewBox="0 0 512 512">
  <defs>
    <linearGradient id="bg" x1="64" y1="48" x2="448" y2="464" gradientUnits="userSpaceOnUse">
      <stop stop-color="#fff9fb"/>
      <stop offset=".58" stop-color="#fff0f5"/>
      <stop offset="1" stop-color="#ffe4ee"/>
    </linearGradient>
    <linearGradient id="flame" x1="166" y1="82" x2="356" y2="422" gradientUnits="userSpaceOnUse">
      <stop stop-color="#fff7c8"/>
      <stop offset=".42" stop-color="#f4b3c2"/>
      <stop offset="1" stop-color="#7058a3"/>
    </linearGradient>
    <linearGradient id="inner" x1="208" y1="170" x2="306" y2="338" gradientUnits="userSpaceOnUse">
      <stop stop-color="#ffffff"/>
      <stop offset=".72" stop-color="#ffeef4"/>
      <stop offset="1" stop-color="#f4b3c2"/>
    </linearGradient>
    <filter id="shadow" x="-20%" y="-20%" width="140%" height="150%">
      <feDropShadow dx="0" dy="22" stdDeviation="18" flood-color="#7058a3" flood-opacity=".2"/>
    </filter>
  </defs>
  <rect width="512" height="512" rx="128" fill="url(#bg)"/>
  <path d="M257 72c31 53 15 93-15 132 36-23 70-21 98 6 29 28 43 66 37 106-10 72-65 124-129 124-69 0-122-54-122-124 0-41 18-77 46-105 39-39 72-74 85-139Z" fill="url(#flame)" filter="url(#shadow)"/>
  <path d="M259 170c12 39 1 65-19 91 24-13 51-5 66 17 13 19 16 44 6 66-13 30-41 49-73 43-35-6-60-35-60-70 0-24 10-45 28-62 25-24 43-47 52-85Z" fill="url(#inner)" opacity=".96"/>
  <circle cx="226" cy="296" r="13" fill="#7058a3"/>
  <circle cx="286" cy="296" r="13" fill="#7058a3"/>
  <path d="M229 342c18 15 36 15 54 0" fill="none" stroke="#7058a3" stroke-width="12" stroke-linecap="round"/>
</svg>
